<?xml version="1.0" encoding="UTF-8"?>
<svg version="1.1" xmlns="http://www.w3.org/2000/svg" width="512" height="512">
<path d="M0 0 C6.95491882 5.11357556 13.40316263 10.75007338 19.75585938 16.58740234 C30.80436983 26.64882527 30.80436983 26.64882527 44.69287109 30.06591797 C49.57705137 29.55169638 54.16025811 27.99705835 58.83398438 26.54443359 C71.17645737 22.89075173 83.52595955 20.52297327 96.27148438 18.79443359 C96.99319824 18.69130859 97.71491211 18.58818359 98.45849609 18.48193359 C128.26761513 14.63293506 158.50374273 19.48742326 187.02148438 28.10693359 C195.57262276 30.58211378 195.57262276 30.58211378 204.13867188 29.05224609 C212.352455 24.38300009 219.46890388 17.1448596 226.54101562 10.91552734 C240.99200644 -1.71572524 255.8651874 -10.66840027 275.56835938 -10.48291016 C286.67860848 -9.65081344 296.33676638 -4.60220193 303.95898438 3.41943359 C315.03688265 16.88769043 318.05628938 33.48128685 317.05664062 50.43896484 C314.66028599 70.40858677 305.94565226 88.84240614 295.82763672 105.96923828 C292.26598138 111.98548123 292.26598138 111.98548123 292.27148438 118.79443359 C293.54280649 121.47871052 295.11522845 123.89589411 296.77148438 126.35693359 C297.69630102 127.78379825 298.62077598 129.21088442 299.54492188 130.63818359 C300.23859863 131.69392578 300.23859863 131.69392578 300.94628906 132.77099609 C318.14278086 159.02827761 336.42211372 194.23793035 333.27148438 226.79443359 C331.64648438 229.35693359 331.64648438 229.35693359 329.27148438 230.79443359 C326.33398438 231.41943359 326.33398438 231.41943359 323.27148438 230.79443359 C317.40295647 225.49382774 316.06377774 218.57615676 313.95898438 211.16943359 C313.18002256 208.53964834 312.38574009 205.91463741 311.58789062 203.29052734 C311.39136902 202.64219437 311.19484741 201.99386139 310.99237061 201.32588196 C304.82471271 181.14549366 295.23270744 163.01615887 283.54223633 145.51733398 C279.51605473 139.39722458 276.07752424 133.0127303 272.64648438 126.54443359 C252.63834154 88.99854106 221.10775635 62.84773981 180.32714844 50.20336914 C176.32340637 49.00456126 172.31560354 47.84972084 168.27148438 46.79443359 C167.52213623 46.59575684 166.77278809 46.39708008 166.00073242 46.19238281 C160.66472824 44.87963441 155.69051934 44.5445257 150.20898438 44.66943359 C149.05366211 44.68296875 149.05366211 44.68296875 147.875 44.69677734 C146.00702195 44.71998204 144.13920776 44.75583541 142.27148438 44.79443359 C142.60148438 45.78443359 142.93148437 46.77443359 143.27148438 47.79443359 C146.22929866 48.5602693 149.08171981 49.15223317 152.08398438 49.66943359 C163.84104925 51.93491817 175.304143 55.39107595 184.27148438 63.79443359 C185.10351562 65.88427734 185.10351562 65.88427734 185.27148438 67.79443359 C184.27148438 69.79443359 184.27148438 69.79443359 182.4465332 70.50244141 C179.92575655 70.84084626 178.78215095 70.47908194 176.47070312 69.46630859 C175.74802246 69.16217041 175.0253418 68.85803223 174.28076172 68.54467773 C173.5145752 68.21459717 172.74838867 67.8845166 171.95898438 67.54443359 C161.53477827 63.27306705 150.68098184 59.89957105 139.27148438 60.79443359 C138.28148437 61.28943359 138.28148437 61.28943359 137.27148438 61.79443359 C137.27148438 62.45443359 137.27148438 63.11443359 137.27148438 63.79443359 C138.14248779 63.98030029 139.01349121 64.16616699 139.91088867 64.35766602 C143.20983724 65.06694105 146.50644455 65.7856929 149.80200195 66.51049805 C151.21591411 66.81952627 152.63061003 67.12499481 154.04614258 67.42651367 C172.41765203 71.34602989 190.8050438 77.34888021 202.82226562 92.78662109 C204.43474135 95.36879871 205.33638848 97.1616186 205.02148438 100.23193359 C204.65023437 101.00537109 204.65023437 101.00537109 204.27148438 101.79443359 C199.80629271 101.28412598 197.68681865 99.61208437 194.27148438 96.79443359 C190.50349891 94.95874837 187.49656802 94.60742351 183.33398438 94.54443359 C176.61562946 94.14072292 171.48616516 92.02418394 165.42382812 89.22412109 C156.17071344 85.0275412 146.22259987 84.13591434 136.27148438 85.79443359 C136.27148438 86.78443359 136.27148438 87.77443359 136.27148438 88.79443359 C137.17688965 88.89933105 137.17688965 88.89933105 138.10058594 89.00634766 C160.84468402 91.70303637 160.84468402 91.70303637 170.27148438 95.79443359 C171.295 96.23787109 172.31851562 96.68130859 173.37304688 97.13818359 C180.87023061 100.63562911 188.91922089 104.80539445 192.27148438 112.79443359 C193.83415705 119.56601521 192.91139666 124.76690323 189.64648438 130.79443359 C188.96585937 131.78443359 188.96585937 131.78443359 188.27148438 132.79443359 C185.93164062 132.56005859 185.93164062 132.56005859 183.27148438 131.79443359 C181.83007812 129.90380859 181.83007812 129.90380859 180.70898438 127.54443359 C180.28875 126.72845703 179.86851562 125.91248047 179.43554688 125.07177734 C178.85933594 123.94449219 178.85933594 123.94449219 178.27148438 122.79443359 C172.89492309 114.23176192 163.03271127 110.93521491 153.69335938 108.47802734 C148.72470683 107.48543123 142.96584768 106.44725194 138.27148438 108.79443359 C138.27148438 109.45443359 138.27148438 110.11443359 138.27148438 110.79443359 C140.0858434 111.92356671 141.950625 112.97208323 143.83398438 113.98193359 C153.3935714 119.43168638 158.78798436 125.34393356 162.27148438 135.79443359 C162.29710214 138.26746289 162.26693058 140.71106133 162.19335938 143.18115234 C162.16603573 144.69349952 162.14004092 146.20587116 162.11523438 147.71826172 C162.0725621 150.07905677 162.02283801 152.43853959 161.94921875 154.79858398 C161.60325558 166.41182635 163.1405534 175.91959978 167.27148438 186.79443359 C167.38363281 185.8430249 167.49578125 184.89161621 167.61132812 183.91137695 C169.3105702 169.96242014 172.69643327 156.14797155 184.25976562 147.06787109 C191.52638994 142.46802735 199.87075999 141.11174271 208.25732422 140.00854492 C213.13471575 139.29221709 216.3161854 137.92422723 220.27148438 134.79443359 C224.80504204 128.69758018 224.46203578 122.58867302 223.86523438 115.29443359 C223.06618361 110.58423959 221.32949319 106.62247916 219.23242188 102.35302734 C218.27148438 99.79443359 218.27148438 99.79443359 218.43554688 97.51708984 C218.71140625 96.94861328 218.98726563 96.38013672 219.27148438 95.79443359 C220.75648438 95.29943359 220.75648438 95.29943359 222.27148438 94.79443359 C228.99088784 98.36363174 234.74751521 104.65173357 240.27148438 109.79443359 C240.94050781 110.39771484 241.60953125 111.00099609 242.29882812 111.62255859 C258.74212122 127.09068707 272.74224765 151.51495767 273.47460938 174.48974609 C273.80580557 197.72262506 273.80580557 197.72262506 267.27148438 205.79443359 C266.28148437 205.46443359 265.29148437 205.13443359 264.27148438 204.79443359 C263.53320312 202.75537109 263.53320312 202.75537109 262.95898438 200.16943359 C261.55215862 194.98129841 259.38426921 191.29672693 255.27148438 187.79443359 C254.28148437 187.46443359 253.29148437 187.13443359 252.27148438 186.79443359 C252.42746094 187.47248047 252.5834375 188.15052734 252.74414062 188.84912109 C254.88919272 199.10559534 254.88260294 206.68287704 249.02148438 215.65771484 C245.63404289 219.79372041 241.49297556 221.76171722 236.27148438 222.79443359 C234.54428984 222.8869133 232.81364577 222.9244254 231.08398438 222.91943359 C230.20355469 222.92201172 229.323125 222.92458984 228.41601562 222.92724609 C224.34075722 222.75512338 220.31897599 222.28615874 216.27148438 221.79443359 C216.71427734 222.1212915 217.15707031 222.44814941 217.61328125 222.78491211 C240.22521858 239.51151039 240.22521858 239.51151039 243.27148438 245.79443359 C256.75799215 241.08870966 265.59046624 228.1928125 272.02148438 216.10693359 C278.4118213 202.7318098 281.18641081 189.10250218 281.83398438 174.35693359 C281.87716797 173.43460938 281.92035156 172.51228516 281.96484375 171.56201172 C282.07003369 169.30627197 282.17217545 167.05043861 282.27148438 164.79443359 C284.61132813 164.19287109 284.61132813 164.19287109 287.27148438 163.79443359 C293.48869901 167.73705751 294.65321503 174.98818313 296.27148438 181.79443359 C301.08289085 207.69955589 295.82585742 235.53340551 281.02148438 257.37646484 C278.20287998 261.27092047 275.31159883 265.07029339 272.27148438 268.79443359 C271.54445313 269.75929688 271.54445313 269.75929688 270.80273438 270.74365234 C262.75313089 280.8672608 250.90565255 287.79663819 239.63891602 293.80200195 C234.01089146 296.71397814 234.01089146 296.71397814 229.27148438 300.79443359 C228.83861864 303.80658205 228.67274895 306.35249013 228.70898438 309.35693359 C228.51464457 318.54985096 226.73077612 325.754628 222.02148438 333.73193359 C219.94072508 336.78538939 219.94072508 336.78538939 220.27148438 340.79443359 C229.53752873 340.27965335 237.74537311 336.46886557 244.27148438 329.79443359 C247.44472057 325.18606546 250.05512259 320.30936923 252.52148438 315.29443359 C254.27148438 311.79443359 254.27148438 311.79443359 256.27148438 309.79443359 C259.54442987 309.72004847 261.52413879 310.10404507 263.96289062 312.35693359 C268.27483081 317.3442379 269.60173934 320.02420684 269.27148438 326.79443359 C268.69667937 329.3810561 268.07690939 331.78574299 267.27148438 334.29443359 C267.0572583 334.97570312 266.84303223 335.65697266 266.62231445 336.35888672 C264.08764303 343.97779537 260.28240264 350.86738864 256.27148438 357.79443359 C252.92895713 357.86871198 250.46789297 357.85990313 247.27148438 356.79443359 C246.74941406 357.42349609 246.22734375 358.05255859 245.68945312 358.70068359 C239.43242911 365.97680259 232.25926637 372.99335079 223.27148438 376.79443359 C220.08398438 376.98193359 220.08398438 376.98193359 217.27148438 376.79443359 C216.27148438 375.79443359 216.27148438 375.79443359 216.17382812 373.50927734 C216.19123047 372.13449219 216.19123047 372.13449219 216.20898438 370.73193359 C216.22251953 369.35328125 216.22251953 369.35328125 216.23632812 367.94677734 C216.25373047 366.88136719 216.25373047 366.88136719 216.27148438 365.79443359 C213.91710277 366.41863258 211.56297756 367.04377282 209.20898438 367.66943359 C208.55220703 367.84345703 207.89542969 368.01748047 207.21875 368.19677734 C205.89001485 368.55023399 204.56380361 368.91330974 203.24023438 369.28564453 C201.35696938 369.77234149 199.43565352 370.10390768 197.51757812 370.42724609 C193.46526872 372.13399494 192.88369486 373.5832664 191.26977539 377.5078125 C190.98158936 378.26239746 190.69340332 379.01698242 190.39648438 379.79443359 C187.14291727 387.43171215 183.47158973 393.13763644 177.27148438 398.79443359 C176.20800781 399.77476562 176.20800781 399.77476562 175.12304688 400.77490234 C157.73937667 415.49140294 130.40566434 417.37072892 108.62207031 415.57617188 C91.30451539 413.73160266 72.19882766 409.26048596 59.92382812 395.93505859 C55.16016495 389.76369354 50.89880833 383.25843063 48.77148438 375.73193359 C48.02700495 373.50339702 48.02700495 373.50339702 46.27148438 371.79443359 C41.6463109 370.03102323 37.06142557 369.05507811 32.20214844 368.18945312 C29.47285435 367.63103155 26.88730284 366.74154028 24.27148438 365.79443359 C24.58085937 367.68162109 24.58085937 367.68162109 24.89648438 369.60693359 C25.48484106 373.1959094 25.43765852 373.54517237 23.27148438 376.79443359 C18.97166758 377.76189237 16.20231324 376.44042163 12.52148438 374.35693359 C6.05886376 370.23725701 -0.24358455 365.2733371 -4.72070312 359.00537109 C-6.50005209 356.55793052 -6.50005209 356.55793052 -9.08789062 356.52490234 C-9.87679687 356.67572266 -10.66570312 356.82654297 -11.47851562 356.98193359 C-12.67734375 357.18882812 -12.67734375 357.18882812 -13.90039062 357.39990234 C-14.50367187 357.53009766 -15.10695313 357.66029297 -15.72851562 357.79443359 C-28.52996967 333.31009916 -28.52996967 333.31009916 -28.72851562 321.79443359 C-27.07123823 317.09881431 -24.54303884 313.97320294 -20.72851562 310.79443359 C-18.10351563 309.79443359 -18.10351563 309.79443359 -15.72851562 309.79443359 C-12.97291839 311.96254309 -12.07926041 314.1483524 -10.97851562 317.41943359 C-7.02609511 327.65098255 -0.3009404 334.0829938 9.44726562 338.86083984 C13.37482586 340.51026721 16.19277538 341.19648981 20.27148438 339.79443359 C19.68728609 336.09232308 18.63696208 333.31868391 16.83398438 330.04443359 C13.73202402 323.94778529 12.36089257 318.56912697 12.07617188 311.74365234 C12.02831543 310.66204834 12.02831543 310.66204834 11.97949219 309.55859375 C11.92476617 308.10706671 11.88980042 306.65464098 11.87597656 305.20214844 C11.84546418 302.9374491 11.84546418 302.9374491 11.27148438 299.79443359 C9.49503048 298.6692789 9.49503048 298.6692789 7.27148438 297.79443359 C-20.71273226 282.41772879 -42.89756702 263.25346912 -52.72851562 231.79443359 C-58.6302698 211.47446984 -59.95627119 186.9613881 -50.69335938 167.43115234 C-49.72851562 165.79443359 -49.72851562 165.79443359 -47.72851562 163.79443359 C-43.17296007 164.34998915 -43.17296007 164.34998915 -41.72851562 165.79443359 C-41.63228301 167.49882007 -41.54338136 169.20390568 -41.48950195 170.91015625 C-40.69462361 194.67200118 -34.57261808 219.87902049 -16.72851562 236.79443359 C-10.31112141 242.81754222 -10.31112141 242.81754222 -2.72851562 245.79443359 C-1.49307215 244.26657338 -1.49307215 244.26657338 -0.22851562 242.29443359 C6.03783263 233.67630815 15.69865536 227.9225395 24.27148438 221.79443359 C23.17835938 221.95943359 22.08523437 222.12443359 20.95898438 222.29443359 C11.05649939 223.4862371 2.13919416 223.77513581 -6.04101562 217.41943359 C-10.22768609 213.33012756 -12.5387676 209.46860827 -12.84204102 203.59619141 C-12.83418579 202.43361816 -12.83418579 202.43361816 -12.82617188 201.24755859 C-12.82133789 199.98105469 -12.82133789 199.98105469 -12.81640625 198.68896484 C-12.80383789 197.37992187 -12.80383789 197.37992187 -12.79101562 196.04443359 C-12.78650391 195.15626953 -12.78199219 194.26810547 -12.77734375 193.35302734 C-12.76558963 191.1667603 -12.74915811 188.98063181 -12.72851562 186.79443359 C-17.80565386 190.55534025 -20.55275924 193.34546855 -22.16601562 199.66943359 C-22.47410156 200.82185547 -22.7821875 201.97427734 -23.09960938 203.16162109 C-23.30714844 204.03044922 -23.5146875 204.89927734 -23.72851562 205.79443359 C-25.59179688 205.59130859 -25.59179688 205.59130859 -27.72851562 204.79443359 C-28.95898438 202.68505859 -28.95898438 202.68505859 -29.91601562 200.04443359 C-30.23957031 199.18333984 -30.563125 198.32224609 -30.89648438 197.43505859 C-36.77369736 178.78249531 -31.6086303 157.64101585 -22.92382812 140.75927734 C-14.13163381 124.50193852 1.29926968 103.17794552 18.27148438 94.79443359 C20.56445312 95.11474609 20.56445312 95.11474609 22.27148438 95.79443359 C22.71480583 99.34100522 22.04914213 101.48395626 20.39648438 104.54443359 C16.0428341 112.81791846 15.24823958 121.07726086 17.95507812 130.06396484 C19.97378055 134.89987865 22.37361953 136.75965248 27.0222168 138.94189453 C30.65902737 140.3203535 34.303345 140.76909328 38.14648438 141.23193359 C48.80155288 142.78627396 57.53707887 145.94153224 64.27148438 154.79443359 C70.17371066 164.34735571 72.50060909 174.83584063 74.27148438 185.79443359 C74.9230945 183.92143334 75.56750633 182.04592809 76.20898438 180.16943359 C76.56863281 179.12529297 76.92828125 178.08115234 77.29882812 177.00537109 C79.77037855 168.84627693 79.80319796 160.58526869 78.77148438 152.16943359 C77.54593291 142.02258839 78.06422923 132.99294496 84.02148438 124.29443359 C89.18440675 118.03397023 96.43897376 114.00649612 103.27148438 109.79443359 C100.85167352 107.37462274 100.21681229 107.49805169 96.89648438 107.48193359 C85.61292394 107.74207332 73.89342394 111.25642321 65.45898438 118.98193359 C61.69193823 123.01677923 59.46331529 127.77443376 57.27148438 132.79443359 C52.49023438 132.08349609 52.49023438 132.08349609 50.52148438 129.48193359 C47.79925239 123.62913483 47.41688238 118.40321863 49.45898438 112.16943359 C55.3252468 101.24604839 67.99580154 96.39032334 79.27148438 92.79443359 C83.9090322 91.61211371 88.56579992 90.66184087 93.27148438 89.79443359 C94.36976563 89.58818359 95.46804687 89.38193359 96.59960938 89.16943359 C99.1548018 88.69770576 101.71137043 88.23853499 104.27148438 87.79443359 C102.04007545 85.25385355 101.5676464 84.82860614 98.02148438 84.41943359 C86.06308804 84.92502756 74.90148785 88.47943186 64.27148438 93.79443359 C62.23130225 93.92447353 60.18912355 94.02399581 58.14648438 94.10693359 C51.85722536 94.54523372 46.23027851 95.48754603 41.81054688 100.42724609 C40.27148438 101.79443359 40.27148438 101.79443359 36.27148438 101.79443359 C36.27148438 95.59628516 38.67432733 92.01321873 42.64648438 87.35302734 C54.75554466 75.55029745 70.62512636 70.75828409 86.83398438 67.48193359 C88.07728516 67.21832031 89.32058594 66.95470703 90.6015625 66.68310547 C99.67209314 64.79443359 99.67209314 64.79443359 104.27148438 64.79443359 C104.27148438 63.47443359 104.27148438 62.15443359 104.27148438 60.79443359 C90.7067443 59.86956495 78.47884422 63.52061091 66.13867188 68.84130859 C63.00207132 69.88399325 60.55561791 70.04193351 57.27148438 69.79443359 C56.27148438 68.79443359 56.27148438 68.79443359 55.94726562 66.45068359 C56.27148438 63.79443359 56.27148438 63.79443359 58.00195312 61.95068359 C68.4160033 54.93071972 79.19093053 51.47203213 91.44335938 49.2253418 C93.40678671 48.84249903 95.34381846 48.32896104 97.27148438 47.79443359 C97.60148438 46.80443359 97.93148437 45.81443359 98.27148438 44.79443359 C73.52047434 43.08353428 47.609766 52.81749727 26.27148438 64.79443359 C25.61196777 65.16407227 24.95245117 65.53371094 24.27294922 65.91455078 C0.55030586 79.45233373 -16.13353509 98.56226072 -29.21679688 122.29052734 C-32.10702418 127.51313637 -35.12976787 132.65569338 -38.16601562 137.79443359 C-38.721521 138.73480469 -39.27702637 139.67517578 -39.84936523 140.64404297 C-43.16389055 146.22823958 -46.56242882 151.74885285 -50.04101562 157.23193359 C-61.81152249 175.94143673 -69.6790618 195.36436227 -75.20727539 216.80004883 C-76.78073742 222.62141676 -78.26757127 226.63780172 -82.72851562 230.79443359 C-86.35351562 231.41943359 -86.35351562 231.41943359 -89.72851562 230.79443359 C-92.21257693 228.16661874 -93.14272762 226.33290207 -93.10351562 222.73193359 C-91.84524888 186.92375915 -75.27785148 153.33216956 -55.12304688 124.49755859 C-54.66285156 123.81177734 -54.20265625 123.12599609 -53.72851562 122.41943359 C-53.33664063 121.85482422 -52.94476563 121.29021484 -52.54101562 120.70849609 C-51.35989005 117.92603681 -51.5046284 115.8063249 -51.72851562 112.79443359 C-52.97943821 109.71417676 -52.97943821 109.71417676 -54.79882812 106.64599609 C-55.45219246 105.47170418 -56.10551108 104.29738683 -56.75878906 103.12304688 C-57.1016394 102.51785217 -57.44448975 101.91265747 -57.79772949 101.28912354 C-63.72852345 90.78629019 -69.29847288 80.41403574 -72.72851562 68.79443359 C-73.06109375 67.72966797 -73.39367187 66.66490234 -73.73632812 65.56787109 C-78.17532142 48.81167119 -77.86717747 28.67395851 -70.04101562 13.10693359 C-63.53461304 2.01247808 -55.32474033 -5.57825782 -42.79101562 -9.08056641 C-27.57491757 -12.34532308 -12.77031749 -8.90675533 0 0 Z M-1.72851562 129.79443359 C-4.71334837 135.57754703 -4.41951161 141.28957313 -2.72851562 147.41943359 C0.35337658 152.62012669 4.61197927 156.66272929 10.20898438 159.04443359 C12.27148438 160.79443359 12.27148438 160.79443359 12.65429688 163.13427734 C12.77650964 165.07108392 12.88674187 167.00867563 12.98632812 168.94677734 C13.650387 175.57826939 17.32485607 180.72338795 22.10742188 185.20068359 C29.19937467 190.423638 38.23828861 192.5079771 46.65429688 194.60693359 C49.27148438 195.79443359 49.27148438 195.79443359 50.63867188 198.18505859 C51.98599618 203.74069216 50.94889153 208.17770467 48.08398438 212.98193359 C42.48313004 220.81767871 34.60954815 227.32982579 27.12304688 233.32568359 C18.48810928 240.80141039 11.07272772 251.83627033 10.03320312 263.45849609 C9.84955047 270.7852703 11.01765346 276.22866764 14.27148438 282.79443359 C14.93148437 282.79443359 15.59148437 282.79443359 16.27148438 282.79443359 C16.58859375 281.78767578 16.90570313 280.78091797 17.23242188 279.74365234 C22.31376151 264.20985874 29.64183296 250.01024053 39.00634766 236.61230469 C41.86090415 232.51060117 44.66033202 228.3718789 47.45898438 224.23193359 C48.35085449 222.93763428 48.35085449 222.93763428 49.26074219 221.6171875 C55.78447779 211.96330281 61.55589581 201.83306955 60.27148438 189.79443359 C59.64555586 187.78131215 58.98536787 185.77807035 58.27148438 183.79443359 C57.3046875 183.70806641 56.33789062 183.62169922 55.34179688 183.53271484 C45.56486819 182.47758096 36.62620361 181.14690169 29.83398438 173.29443359 C26.78584399 168.83290968 26.01103775 164.02065879 25.20507812 158.74755859 C23.53009625 153.44928957 18.97556695 151.52637143 14.33398438 148.98193359 C6.294565 144.20367542 2.59441223 138.41449938 -0.72851562 129.79443359 C-1.05851562 129.79443359 -1.38851562 129.79443359 -1.72851562 129.79443359 Z M241.27148438 129.79443359 C241.06394531 130.35130859 240.85640625 130.90818359 240.64257812 131.48193359 C236.34729013 142.12130804 229.91275505 147.44992841 220.06445312 152.93505859 C216.4395558 155.34827695 215.64374319 157.00404597 214.77929688 161.16162109 C214.58980469 162.40298828 214.58980469 162.40298828 214.39648438 163.66943359 C213.31319437 169.37979954 211.20315019 172.96718215 206.95898438 176.98193359 C200.61847235 181.25809287 194.84253237 182.31814308 187.33837891 183.06054688 C185.64143887 183.24176516 183.95439735 183.51115024 182.27148438 183.79443359 C179.51857133 189.30025969 180.57970003 197.99553059 182.03710938 203.89208984 C186.1155027 214.33220233 192.82908827 223.82529391 199.16601562 233.00927734 C204.8810606 241.31967383 210.06981414 249.73858269 214.77148438 258.66943359 C215.26374512 259.59570557 215.75600586 260.52197754 216.26318359 261.47631836 C219.64822455 268.05185097 222.11438607 274.72514652 224.27148438 281.79443359 C225.26148438 281.79443359 226.25148438 281.79443359 227.27148438 281.79443359 C231.13693508 273.7414113 231.72485194 265.27820474 229.42773438 256.61083984 C223.56944251 241.39115591 211.47537206 229.38802443 198.58398438 219.79443359 C194.28137659 216.07325929 190.68364215 211.46331347 190.03320312 205.67333984 C190.00871094 204.90892578 189.98421875 204.14451172 189.95898438 203.35693359 C189.92160156 202.59509766 189.88421875 201.83326172 189.84570312 201.04833984 C190.46704932 197.75919529 191.59239522 196.80167686 194.27148438 194.79443359 C197.10634155 193.64014928 200.01848472 192.82280542 202.95898438 191.98193359 C213.43263601 188.73026534 220.44096032 184.26903518 226.27148438 174.79443359 C227.41592873 171.9332311 227.41592873 171.9332311 227.20117188 169.34130859 C227.13968231 166.19655641 227.29983158 163.79772404 228.27148438 160.79443359 C230.86355213 158.49701604 233.42928126 156.99833425 236.50976562 155.42724609 C240.59363444 153.01273808 242.77659489 150.27910204 244.27148438 145.79443359 C244.36604099 143.81708794 244.40137832 141.83653276 244.39648438 139.85693359 C244.3990625 138.81666016 244.40164063 137.77638672 244.40429688 136.70458984 C244.2908046 134.21777389 243.99077008 132.16350953 243.27148438 129.79443359 C242.61148438 129.79443359 241.95148438 129.79443359 241.27148438 129.79443359 Z M41.27148438 157.79443359 C40.26852537 160.9856668 40.08419201 162.3705614 41.45898438 165.48193359 C43.37690525 167.92893608 44.33241622 168.87072646 47.27148438 169.79443359 C50.43844393 169.96168096 50.43844393 169.96168096 53.27148438 169.79443359 C53.5772332 166.8206171 53.5772332 166.8206171 51.91601562 165.04052734 C47.24954468 160.40792282 47.24954468 160.40792282 41.27148438 157.79443359 Z M191.27148438 162.79443359 C187.90853964 165.92335916 187.90853964 165.92335916 186.27148438 169.79443359 C191.98117417 170.21405287 191.98117417 170.21405287 197.20898438 168.23193359 C199.83505312 165.1283978 200.04076761 162.79352419 200.27148438 158.79443359 C196.14985507 158.79443359 194.53228808 160.31622278 191.27148438 162.79443359 Z M72.27148438 253.79443359 C71.31242187 255.40318359 71.31242187 255.40318359 70.33398438 257.04443359 C69.97433594 257.64771484 69.6146875 258.25099609 69.24414062 258.87255859 C66.44073199 264.41182384 66.6882403 270.74232949 67.27148438 276.79443359 C68.12107433 279.37288347 69.1317252 281.65447349 70.39648438 284.05224609 C71.27148438 285.79443359 71.27148438 285.79443359 71.27148438 287.79443359 C59.66967759 287.4050211 48.62066904 286.2529082 37.27148438 283.79443359 C36.28148437 286.26943359 36.28148437 286.26943359 35.27148438 288.79443359 C41.18505388 291.86445691 47.10876757 294.62641035 53.33789062 296.99755859 C55.27148438 297.79443359 55.27148438 297.79443359 56.27148438 298.79443359 C56.34328401 300.31371397 56.35540445 301.83610841 56.33398438 303.35693359 C56.32496094 304.18322266 56.3159375 305.00951172 56.30664062 305.86083984 C56.29503906 306.49892578 56.2834375 307.13701172 56.27148438 307.79443359 C49.63372275 308.31504235 44.4121864 306.79152877 38.12695312 304.66943359 C35.29117954 303.64794223 35.29117954 303.64794223 32.27148438 303.79443359 C31.31646279 305.51920271 31.31646279 305.51920271 31.27148438 307.79443359 C35.05481401 312.49943882 38.67150271 314.00495524 44.27148438 315.54443359 C44.97015625 315.75197266 45.66882813 315.95951172 46.38867188 316.17333984 C49.9871663 317.22572972 53.58135964 318.13136431 57.27148438 318.79443359 C57.27148438 322.09443359 57.27148438 325.39443359 57.27148438 328.79443359 C50.4830502 328.88036314 44.00096077 328.67698788 37.27148438 327.79443359 C38.43124235 332.3046035 40.5796801 334.11465398 44.22460938 336.68115234 C55.13415711 342.6147804 68.67675182 341.485266 80.30761719 338.39697266 C91.04422833 335.10284582 102.3150221 328.72046531 108.00976562 318.75146484 C110.06964146 313.92383016 110.05832501 310.14766994 108.42773438 305.27099609 C104.47986364 296.38828693 98.4436869 292.99998687 90.20898438 288.41943359 C83.1065242 284.33910609 77.37480253 279.26398343 74.75976562 271.29052734 C73.63501708 265.54081276 73.4921155 259.6373543 73.27148438 253.79443359 C72.94148438 253.79443359 72.61148438 253.79443359 72.27148438 253.79443359 Z M167.27148438 253.79443359 C167.31789063 254.60525391 167.36429687 255.41607422 167.41210938 256.25146484 C167.74494108 266.46226603 166.31926184 275.0406176 159.27148438 282.79443359 C156.79101562 284.60302734 156.79101562 284.60302734 154.08398438 286.23193359 C153.1171875 286.83005859 152.15039062 287.42818359 151.15429688 288.04443359 C149.36071945 289.13321772 147.56433192 290.21740329 145.76367188 291.29443359 C139.55717328 295.1656056 134.63487792 299.70425296 132.27148438 306.79443359 C131.6897544 312.24934419 131.5850559 317.35612204 134.76367188 322.07958984 C144.94268492 333.6562394 159.16858741 339.52052138 174.27148438 340.79443359 C183.40521065 341.23906401 191.69798941 340.19977096 199.27148438 334.79443359 C202.43703928 331.78979389 202.43703928 331.78979389 203.27148438 327.79443359 C201.99273437 327.95943359 200.71398437 328.12443359 199.39648438 328.29443359 C194.34306857 328.86485096 189.35085788 328.88987067 184.27148438 328.79443359 C182.90195765 326.05538014 183.14527076 323.82356027 183.27148438 320.79443359 C183.60148437 320.13443359 183.93148437 319.47443359 184.27148438 318.79443359 C187.95934418 317.68694556 191.65497346 316.737332 195.39453125 315.82568359 C200.42789465 314.52515797 204.20386021 313.07932882 208.27148438 309.79443359 C209.32994247 307.26093557 209.32994247 307.26093557 209.27148438 304.79443359 C208.94148438 304.13443359 208.61148438 303.47443359 208.27148438 302.79443359 C204.57838856 303.42887139 201.31418331 304.47966338 197.83398438 305.85693359 C193.82113384 307.3495842 190.60486131 308.34999474 186.27148438 307.79443359 C185.28148437 307.29943359 185.28148437 307.29943359 184.27148438 306.79443359 C184.27148438 304.15443359 184.27148438 301.51443359 184.27148438 298.79443359 C184.78195312 298.57529297 185.29242188 298.35615234 185.81835938 298.13037109 C192.42169026 295.25019486 198.84866395 292.05474853 205.27148438 288.79443359 C204.28148437 286.31943359 204.28148437 286.31943359 203.27148438 283.79443359 C202.3253125 283.98779297 201.37914062 284.18115234 200.40429688 284.38037109 C190.07026957 286.4342326 179.7539842 287.76316914 169.27148438 288.79443359 C169.54863281 288.13056641 169.82578125 287.46669922 170.11132812 286.78271484 C170.65466797 285.45820313 170.65466797 285.45820313 171.20898438 284.10693359 C171.56863281 283.23681641 171.92828125 282.36669922 172.29882812 281.47021484 C175.42400367 272.87284437 174.47781705 265.20737987 171.27148438 256.79443359 C170.61148438 255.80443359 169.95148438 254.81443359 169.27148438 253.79443359 C168.61148438 253.79443359 167.95148438 253.79443359 167.27148438 253.79443359 Z M87.27148438 261.79443359 C85.96401728 262.893669 85.96401728 262.893669 85.95898438 265.60693359 C85.9974078 268.8199365 85.9974078 268.8199365 87.90429688 270.98974609 C90.99388826 273.34517715 92.62729066 273.11787331 96.45898438 272.85693359 C100.6044046 272.7144635 103.75010923 272.68835076 107.58398438 274.29443359 C116.38175077 277.70316227 127.15975572 276.63425583 135.82617188 273.44677734 C139.74701564 272.40080145 143.59044141 272.77752139 147.60742188 273.07958984 C150.40982653 273.02007987 150.40982653 273.02007987 152.57617188 270.96240234 C154.47659642 268.53213593 154.93410492 266.83084871 155.27148438 263.79443359 C153.31901772 261.54387436 153.31901772 261.54387436 150.27148438 259.79443359 C145.89794309 259.86497458 142.04457511 260.6285862 137.77539062 261.54443359 C124.29677639 264.41398504 113.38045675 263.94222007 99.92358398 261.04223633 C93.40307361 259.57807291 93.40307361 259.57807291 87.27148438 261.79443359 Z M103.20898438 349.16943359 C92.13883824 356.10631418 80.19958738 359.15393567 67.27148438 360.79443359 C66.71786062 368.54516616 68.45027583 373.50302362 73.52148438 379.41943359 C87.79130377 391.74336852 101.84271631 394.22003885 120.45898438 394.16943359 C121.1423587 394.16955444 121.82573303 394.16967529 122.52981567 394.1697998 C132.95588379 394.14353575 142.45517053 393.51429989 152.27148438 389.79443359 C153.06554687 389.50568359 153.85960937 389.21693359 154.67773438 388.91943359 C162.30398221 385.63428068 169.2938722 379.47041784 172.63085938 371.82568359 C173.68403631 368.48634208 174.02225862 365.28359415 174.27148438 361.79443359 C170.08783273 360.30930046 166.00658811 359.29882659 161.64648438 358.48193359 C150.69810111 356.15711999 141.45679952 351.61510758 131.96533203 345.82910156 C120.89892713 339.27651458 113.31981717 342.78247702 103.20898438 349.16943359 Z " fill="#000000" transform="translate(135.728515625,53.20556640625)"/>
<path d="M0 0 C4.20423729 1.14661017 4.20423729 1.14661017 5.75 3.75 C6.73191733 8.57776022 6.77416894 12.37084021 6.0078125 17.25390625 C5.41005502 23.04128552 5.68186785 28.93605664 5.75 34.75 C6.85408203 34.66298828 6.85408203 34.66298828 7.98046875 34.57421875 C15.83389467 34.21111451 15.83389467 34.21111451 19.9375 36.625 C23.43953683 42.66299454 21.90039043 49.13525502 20.75 55.75 C20.66706737 58.42335756 20.70386782 61.07433328 20.75 63.75 C25.7 63.255 25.7 63.255 30.75 62.75 C32.58209298 64.94851157 33.7622146 66.74636683 33.7265625 69.67578125 C33.51892349 71.30041623 33.30310959 72.92401421 33.08203125 74.546875 C32.66150592 78.60370761 32.62205171 82.61170029 32.625 86.6875 C32.62363037 87.46778564 32.62226074 88.24807129 32.62084961 89.05200195 C32.64356412 93.47020556 32.92290207 97.73787796 33.5 102.125 C33.85623104 105.53014962 33.93784701 106.40561381 32.25 109.5 C28.61580813 111.31709594 26.62254268 110.86183511 22.75 109.75 C20.92082311 107.21657442 19.78022839 105.24454303 18.5625 102.4375 C18.22863281 101.71997559 17.89476562 101.00245117 17.55078125 100.26318359 C10.75 85.32338142 10.75 85.32338142 10.75 79.75 C9.656875 79.54375 8.56375 79.3375 7.4375 79.125 C3.75 77.75 3.75 77.75 2.15625 75.3125 C0.35151131 70.74049531 -0.55347334 66.19758901 -1.4375 61.375 C-1.61474609 60.44816406 -1.79199219 59.52132812 -1.97460938 58.56640625 C-2.40769206 56.29564838 -2.83257427 54.02367875 -3.25 51.75 C-4.16523437 51.84539062 -5.08046875 51.94078125 -6.0234375 52.0390625 C-7.21195313 52.14992188 -8.40046875 52.26078125 -9.625 52.375 C-10.80835938 52.49101562 -11.99171875 52.60703125 -13.2109375 52.7265625 C-14.21382812 52.73429687 -15.21671875 52.74203125 -16.25 52.75 C-18.9037981 50.0962019 -18.54869984 48.83264327 -18.5625 45.125 C-18.29326245 29.89625108 -14.96084275 14.29931416 -5.01953125 2.34375 C-3.25 0.75 -3.25 0.75 0 0 Z " fill="#000000" transform="translate(67.25,279.25)"/>
<path d="M0 0 C3.65278561 0.70245877 4.0980003 1.13933371 6.3125 3.9375 C15.3681956 17.40251335 19.88569427 34.40667546 18.25 50.625 C17.59 51.285 16.93 51.945 16.25 52.625 C13.2109375 52.6015625 13.2109375 52.6015625 9.625 52.25 C8.43648438 52.13914062 7.24796875 52.02828125 6.0234375 51.9140625 C5.10820312 51.81867188 4.19296875 51.72328125 3.25 51.625 C2.86908203 53.56052734 2.86908203 53.56052734 2.48046875 55.53515625 C2.13320897 57.25268437 1.78553046 58.97012788 1.4375 60.6875 C1.27185547 61.53505859 1.10621094 62.38261719 0.93554688 63.25585938 C-0.11174614 68.37376298 -1.16186228 73.05940874 -3.75 77.625 C-4.7090625 78.04394531 -5.668125 78.46289062 -6.65625 78.89453125 C-11.56078425 81.63785028 -12.42573606 86.19052818 -14.25 91.3125 C-19.77902909 106.53251964 -19.77902909 106.53251964 -24.75 110.625 C-27.29101562 110.94799805 -27.29101562 110.94799805 -29.75 110.625 C-32.125 108.75 -32.125 108.75 -33.75 105.625 C-33.77805213 103.27797199 -33.45744146 101.08447283 -33.1171875 98.76171875 C-32.66381257 94.88873932 -32.61771898 91.08327533 -32.625 87.1875 C-32.62443604 86.45337891 -32.62387207 85.71925781 -32.62329102 84.96289062 C-32.64928232 80.71732904 -32.91794989 76.59420364 -33.4375 72.375 C-33.83686766 68.82926279 -33.83451916 67.81241206 -32.3125 64.4375 C-31.796875 63.839375 -31.28125 63.24125 -30.75 62.625 C-27.45 62.955 -24.15 63.285 -20.75 63.625 C-20.8221875 62.81417969 -20.894375 62.00335938 -20.96875 61.16796875 C-22.60401359 41.65836568 -22.60401359 41.65836568 -20.4375 36.5 C-16.75566027 33.93127461 -13.53126341 33.97446226 -9.11328125 33.86328125 C-8.33339844 33.78464844 -7.55351562 33.70601563 -6.75 33.625 C-3.6208663 27.36673259 -6.05427086 17.49484579 -6.7265625 10.82421875 C-6.75101701 7.48617868 -6.27972452 5.56477671 -4.75 2.625 C-2.75 0.625 -2.75 0.625 0 0 Z " fill="#000000" transform="translate(444.75,279.375)"/>
</svg>
